<svg xmlns="http://www.w3.org/2000/svg" viewBox="0 0 64 64"
     fill="currentColor" aria-label="basal" width="28" height="28">
  <path d="M 4 2 L 60 2 L 60 10 L 24 10 L 20 6 L 16 10 L 4 10 Z"/>
  <path d="M 4 14 L 16 14 L 20 10 L 24 14 L 60 14 L 60 22 L 48 22 L 44 18 L 40 22 L 4 22 Z"/>
  <path d="M 4 26 L 40 26 L 44 22 L 48 26 L 60 26 L 60 34 L 36 34 L 32 30 L 28 34 L 4 34 Z"/>
  <path d="M 4 38 L 28 38 L 32 34 L 36 38 L 60 38 L 60 46 L 4 46 Z"/>
  <path d="M 4 50 L 60 50 L 60 58 L 4 58 Z"/>
</svg>
